<svg xmlns="http://www.w3.org/2000/svg" viewBox="0 0 1280 720" width="1280" height="720">
  <defs>
    <linearGradient id="bg" x1="0%" y1="0%" x2="100%" y2="100%">
      <stop offset="0%" stop-color="#020014"/>
      <stop offset="40%" stop-color="#0a0525"/>
      <stop offset="100%" stop-color="#050020"/>
    </linearGradient>
    <linearGradient id="titleGrad" x1="0%" y1="0%" x2="100%" y2="0%">
      <stop offset="0%" stop-color="#c084fc"/>
      <stop offset="35%" stop-color="#a855f7"/>
      <stop offset="65%" stop-color="#06b6d4"/>
      <stop offset="100%" stop-color="#22d3ee"/>
    </linearGradient>
    <linearGradient id="line1" x1="0%" y1="0%" x2="100%" y2="0%">
      <stop offset="0%" stop-color="#a855f7" stop-opacity="0"/>
      <stop offset="20%" stop-color="#a855f7" stop-opacity="1"/>
      <stop offset="50%" stop-color="#06b6d4" stop-opacity="1"/>
      <stop offset="80%" stop-color="#22d3ee" stop-opacity="1"/>
      <stop offset="100%" stop-color="#22d3ee" stop-opacity="0"/>
    </linearGradient>
    <radialGradient id="glow1" cx="50%" cy="25%" r="30%">
      <stop offset="0%" stop-color="#a855f7" stop-opacity="0.35"/>
      <stop offset="100%" stop-color="#7c3aed" stop-opacity="0"/>
    </radialGradient>
    <radialGradient id="glow2" cx="50%" cy="28%" r="22%">
      <stop offset="0%" stop-color="#06b6d4" stop-opacity="0.25"/>
      <stop offset="100%" stop-color="#06b6d4" stop-opacity="0"/>
    </radialGradient>
    <linearGradient id="purpleBar" x1="0%" y1="0%" x2="100%" y2="0%">
      <stop offset="0%" stop-color="#7c3aed"/>
      <stop offset="100%" stop-color="#a855f7"/>
    </linearGradient>
    <linearGradient id="cyanBar" x1="0%" y1="0%" x2="100%" y2="0%">
      <stop offset="0%" stop-color="#06b6d4"/>
      <stop offset="100%" stop-color="#22d3ee"/>
    </linearGradient>
    <linearGradient id="amberBar" x1="0%" y1="0%" x2="100%" y2="0%">
      <stop offset="0%" stop-color="#d97706"/>
      <stop offset="100%" stop-color="#f59e0b"/>
    </linearGradient>
    <linearGradient id="greenBar" x1="0%" y1="0%" x2="100%" y2="0%">
      <stop offset="0%" stop-color="#059669"/>
      <stop offset="100%" stop-color="#10b981"/>
    </linearGradient>
    <linearGradient id="pinkBar" x1="0%" y1="0%" x2="100%" y2="0%">
      <stop offset="0%" stop-color="#db2777"/>
      <stop offset="100%" stop-color="#ec4899"/>
    </linearGradient>
    <linearGradient id="redBar" x1="0%" y1="0%" x2="100%" y2="0%">
      <stop offset="0%" stop-color="#dc2626"/>
      <stop offset="100%" stop-color="#ef4444"/>
    </linearGradient>
    <linearGradient id="emeraldBar" x1="0%" y1="0%" x2="100%" y2="0%">
      <stop offset="0%" stop-color="#059669"/>
      <stop offset="100%" stop-color="#34d399"/>
    </linearGradient>
    <linearGradient id="skyBar" x1="0%" y1="0%" x2="100%" y2="0%">
      <stop offset="0%" stop-color="#0284c7"/>
      <stop offset="100%" stop-color="#38bdf8"/>
    </linearGradient>
    <linearGradient id="roseBar" x1="0%" y1="0%" x2="100%" y2="0%">
      <stop offset="0%" stop-color="#e11d48"/>
      <stop offset="100%" stop-color="#fb7185"/>
    </linearGradient>
    <linearGradient id="violetBar" x1="0%" y1="0%" x2="100%" y2="0%">
      <stop offset="0%" stop-color="#7c3aed"/>
      <stop offset="100%" stop-color="#a78bfa"/>
    </linearGradient>
    <linearGradient id="tealBar" x1="0%" y1="0%" x2="100%" y2="0%">
      <stop offset="0%" stop-color="#0d9488"/>
      <stop offset="100%" stop-color="#2dd4bf"/>
    </linearGradient>
  </defs>

  <!-- Background -->
  <rect width="1280" height="720" fill="url(#bg)"/>

  <!-- Subtle grid -->
  <g opacity="0.04" stroke="#a855f7" stroke-width="0.5">
    <line x1="320" y1="0" x2="320" y2="720"/>
    <line x1="640" y1="0" x2="640" y2="720"/>
    <line x1="960" y1="0" x2="960" y2="720"/>
    <line x1="0" y1="130" x2="1280" y2="130"/>
    <line x1="0" y1="260" x2="1280" y2="260"/>
    <line x1="0" y1="390" x2="1280" y2="390"/>
    <line x1="0" y1="520" x2="1280" y2="520"/>
  </g>

  <!-- Central glow -->
  <ellipse cx="640" cy="100" rx="380" ry="100" fill="url(#glow1)"/>
  <ellipse cx="640" cy="100" rx="200" ry="60" fill="url(#glow2)"/>

  <!-- Neural network lines -->
  <g stroke="#a855f7" stroke-width="0.5" opacity="0.15">
    <line x1="120" y1="120" x2="300" y2="80"/>
    <line x1="120" y1="120" x2="300" y2="170"/>
    <line x1="300" y1="80" x2="480" y2="110"/>
    <line x1="300" y1="170" x2="480" y2="110"/>
    <line x1="800" y1="110" x2="980" y2="80"/>
    <line x1="800" y1="110" x2="980" y2="170"/>
    <line x1="980" y1="80" x2="1160" y2="120"/>
    <line x1="980" y1="170" x2="1160" y2="120"/>
  </g>
  <g stroke="#06b6d4" stroke-width="0.4" opacity="0.1">
    <line x1="480" y1="110" x2="560" y2="85"/>
    <line x1="480" y1="110" x2="560" y2="140"/>
    <line x1="720" y1="85" x2="800" y2="110"/>
    <line x1="720" y1="140" x2="800" y2="110"/>
  </g>

  <!-- Network nodes -->
  <g opacity="0.35">
    <circle cx="120" cy="120" r="3" fill="#a855f7"/>
    <circle cx="300" cy="80" r="3" fill="#c084fc"/>
    <circle cx="300" cy="170" r="3" fill="#7c3aed"/>
    <circle cx="480" cy="110" r="4" fill="#a855f7"/>
    <circle cx="800" cy="110" r="4" fill="#06b6d4"/>
    <circle cx="980" cy="80" r="3" fill="#22d3ee"/>
    <circle cx="980" cy="170" r="3" fill="#0891b2"/>
    <circle cx="1160" cy="120" r="3" fill="#06b6d4"/>
    <circle cx="560" cy="85" r="2.5" fill="#c084fc"/>
    <circle cx="560" cy="140" r="2.5" fill="#a855f7"/>
    <circle cx="720" cy="85" r="2.5" fill="#22d3ee"/>
    <circle cx="720" cy="140" r="2.5" fill="#06b6d4"/>
  </g>

  <!-- Brain icon -->
  <g transform="translate(640,85)">
    <path d="M-42,-32 C-42,-52 -22,-58 0,-52 C22,-58 42,-52 42,-32 C52,-27 56,-12 52,4 C56,18 47,32 32,32 C27,42 12,47 0,42 C-12,47 -27,42 -32,32 C-47,32 -56,18 -52,4 C-56,-12 -52,-27 -42,-32Z" fill="none" stroke="#a855f7" stroke-width="2" opacity="0.7"/>
    <path d="M-2,-42 C-26,-38 -36,-18 -34,4 C-32,22 -22,34 -2,36" fill="none" stroke="#7c3aed" stroke-width="1" opacity="0.35"/>
    <path d="M2,-42 C26,-38 36,-18 34,4 C32,22 22,34 2,36" fill="none" stroke="#7c3aed" stroke-width="1" opacity="0.35"/>
    <path d="M-16,-28 C-6,-16 6,-16 16,-28" fill="none" stroke="#06b6d4" stroke-width="1.5" opacity="0.5"/>
    <path d="M-24,-10 C-10,-4 10,-4 24,-10" fill="none" stroke="#22d3ee" stroke-width="1.5" opacity="0.5"/>
    <path d="M-20,10 C-8,5 8,5 20,10" fill="none" stroke="#c084fc" stroke-width="1.5" opacity="0.5"/>
    <circle cx="0" cy="-24" r="3.5" fill="#a855f7" opacity="0.9"/>
    <circle cx="0" cy="-6" r="3.5" fill="#06b6d4" opacity="0.9"/>
    <circle cx="0" cy="12" r="3.5" fill="#22d3ee" opacity="0.9"/>
  </g>

  <!-- Orbiting nodes -->
  <circle cx="510" cy="70" r="4" fill="#a855f7" opacity="0.7"/>
  <circle cx="770" cy="70" r="4" fill="#06b6d4" opacity="0.7"/>
  <circle cx="540" cy="150" r="3.5" fill="#22d3ee" opacity="0.6"/>
  <circle cx="740" cy="150" r="3.5" fill="#c084fc" opacity="0.6"/>
  <line x1="510" y1="70" x2="540" y2="150" stroke="#a855f7" stroke-width="0.7" opacity="0.25"/>
  <line x1="770" y1="70" x2="740" y2="150" stroke="#06b6d4" stroke-width="0.7" opacity="0.25"/>

  <!-- Title -->
  <text x="640" y="225" text-anchor="middle" font-family="Segoe UI,system-ui,-apple-system,sans-serif" font-size="50" font-weight="800" fill="url(#titleGrad)">AGENT SHADOW BRAIN</text>

  <!-- Subtitle -->
  <text x="640" y="250" text-anchor="middle" font-family="Segoe UI,system-ui,-apple-system,sans-serif" font-size="13" fill="#94a3b8" letter-spacing="7">INFINITE INTELLIGENCE EDITION</text>

  <!-- Version badge -->
  <rect x="565" y="262" width="150" height="24" rx="12" fill="#0d0a2e" stroke="#22d3ee" stroke-width="1.2"/>
  <text x="640" y="279" text-anchor="middle" font-family="Courier New,monospace" font-size="12" font-weight="700" fill="#22d3ee">v5.0.1</text>

  <!-- Top accent line -->
  <rect x="200" y="298" width="880" height="1.5" fill="url(#line1)" opacity="0.4"/>

  <!-- ===== ROW 1: v5.0.1 NEW FEATURES ===== -->
  <text x="80" y="325" font-family="Segoe UI,sans-serif" font-size="10" fill="#22d3ee" letter-spacing="3" font-weight="600">v5.0.1 NEW</text>

  <!-- Zero-Config Auto-Setup -->
  <g transform="translate(80,332)">
    <rect width="260" height="48" rx="7" fill="#0d0a2e" stroke="#22d3ee" stroke-width="0.8" opacity="0.9"/>
    <rect width="4" height="48" rx="2" fill="url(#skyBar)"/>
    <text x="18" y="18" font-family="Segoe UI,sans-serif" font-size="10.5" font-weight="700" fill="#38bdf8">ZERO-CONFIG AUTO-SETUP</text>
    <text x="18" y="32" font-family="Segoe UI,sans-serif" font-size="8.5" fill="#94a3b8">Auto-detect project + AI tools</text>
    <text x="18" y="43" font-family="Courier New,monospace" font-size="7" fill="#64748b">25+ langs · 15+ frameworks · MCP auto</text>
  </g>

  <!-- MCP Server -->
  <g transform="translate(365,332)">
    <rect width="260" height="48" rx="7" fill="#0d0a2e" stroke="#a78bfa" stroke-width="0.8" opacity="0.9"/>
    <rect width="4" height="48" rx="2" fill="url(#violetBar)"/>
    <text x="18" y="18" font-family="Segoe UI,sans-serif" font-size="10.5" font-weight="700" fill="#a78bfa">MCP SERVER — 19 TOOLS</text>
    <text x="18" y="32" font-family="Segoe UI,sans-serif" font-size="8.5" fill="#94a3b8">Works with ALL AI coding agents</text>
    <text x="18" y="43" font-family="Courier New,monospace" font-size="7" fill="#64748b">Claude Code · Cursor · Cline · Kilo + 5</text>
  </g>

  <!-- Dashboard -->
  <g transform="translate(650,332)">
    <rect width="260" height="48" rx="7" fill="#0d0a2e" stroke="#2dd4bf" stroke-width="0.8" opacity="0.9"/>
    <rect width="4" height="48" rx="2" fill="url(#tealBar)"/>
    <text x="18" y="18" font-family="Segoe UI,sans-serif" font-size="10.5" font-weight="700" fill="#2dd4bf">REAL-TIME DASHBOARD</text>
    <text x="18" y="32" font-family="Segoe UI,sans-serif" font-size="8.5" fill="#94a3b8">WebSocket live updates · 8 panels</text>
    <text x="18" y="43" font-family="Courier New,monospace" font-size="7" fill="#64748b">Health · Memory · Insights · Modules</text>
  </g>

  <!-- Plugin System + Export -->
  <g transform="translate(935,332)">
    <rect width="260" height="48" rx="7" fill="#0d0a2e" stroke="#34d399" stroke-width="0.8" opacity="0.9"/>
    <rect width="4" height="48" rx="2" fill="url(#emeraldBar)"/>
    <text x="18" y="18" font-family="Segoe UI,sans-serif" font-size="10.5" font-weight="700" fill="#34d399">PLUGINS + EXPORT/IMPORT</text>
    <text x="18" y="32" font-family="Segoe UI,sans-serif" font-size="8.5" fill="#94a3b8">Hookable pipeline · Team sync</text>
    <text x="18" y="43" font-family="Courier New,monospace" font-size="7" fill="#64748b">npm plugins · NL queries · Brain port</text>
  </g>

  <!-- ===== ROW 2: v5.0.0 INFINITE INTELLIGENCE ===== -->
  <text x="80" y="402" font-family="Segoe UI,sans-serif" font-size="10" fill="#a855f7" letter-spacing="3" font-weight="600">v5.0.0 INFINITE INTELLIGENCE</text>

  <!-- Hierarchical Memory -->
  <g transform="translate(80,409)">
    <rect width="260" height="48" rx="7" fill="#0d0a2e" stroke="#a855f7" stroke-width="0.8" opacity="0.9"/>
    <rect width="4" height="48" rx="2" fill="url(#purpleBar)"/>
    <text x="18" y="18" font-family="Segoe UI,sans-serif" font-size="10.5" font-weight="700" fill="#a855f7">HIERARCHICAL MEMORY</text>
    <text x="18" y="32" font-family="Segoe UI,sans-serif" font-size="8.5" fill="#94a3b8">4-tier pyramid · Never forgets</text>
    <text x="18" y="43" font-family="Courier New,monospace" font-size="7" fill="#64748b">Raw 50K → Summ 10K → Pat 2K → Princ 500</text>
  </g>

  <!-- Context Recall -->
  <g transform="translate(365,409)">
    <rect width="260" height="48" rx="7" fill="#0d0a2e" stroke="#06b6d4" stroke-width="0.8" opacity="0.9"/>
    <rect width="4" height="48" rx="2" fill="url(#cyanBar)"/>
    <text x="18" y="18" font-family="Segoe UI,sans-serif" font-size="10.5" font-weight="700" fill="#06b6d4">CONTEXT-TRIGGERED RECALL</text>
    <text x="18" y="32" font-family="Segoe UI,sans-serif" font-size="8.5" fill="#94a3b8">Associative memory activation</text>
    <text x="18" y="43" font-family="Courier New,monospace" font-size="7" fill="#64748b">File paths · Keywords · Co-occurrence</text>
  </g>

  <!-- Consensus Engine -->
  <g transform="translate(650,409)">
    <rect width="260" height="48" rx="7" fill="#0d0a2e" stroke="#f59e0b" stroke-width="0.8" opacity="0.9"/>
    <rect width="4" height="48" rx="2" fill="url(#amberBar)"/>
    <text x="18" y="18" font-family="Segoe UI,sans-serif" font-size="10.5" font-weight="700" fill="#f59e0b">CONSENSUS ENGINE</text>
    <text x="18" y="32" font-family="Segoe UI,sans-serif" font-size="8.5" fill="#94a3b8">Multi-agent voting + trust scores</text>
    <text x="18" y="43" font-family="Courier New,monospace" font-size="7" fill="#64748b">Byzantine tolerance · Conflict resolution</text>
  </g>

  <!-- Collective Learning -->
  <g transform="translate(935,409)">
    <rect width="260" height="48" rx="7" fill="#0d0a2e" stroke="#10b981" stroke-width="0.8" opacity="0.9"/>
    <rect width="4" height="48" rx="2" fill="url(#greenBar)"/>
    <text x="18" y="18" font-family="Segoe UI,sans-serif" font-size="10.5" font-weight="700" fill="#10b981">COLLECTIVE LEARNING</text>
    <text x="18" y="32" font-family="Segoe UI,sans-serif" font-size="8.5" fill="#94a3b8">Cross-project rule sharing</text>
    <text x="18" y="43" font-family="Courier New,monospace" font-size="7" fill="#64748b">Viral propagation · Accuracy tracking</text>
  </g>

  <!-- ===== ROW 3: v4.0.0 HYPER-INTELLIGENCE ===== -->
  <text x="80" y="479" font-family="Segoe UI,sans-serif" font-size="10" fill="#c084fc" letter-spacing="3" font-weight="600">v4.0.0 HYPER-INTELLIGENCE</text>

  <!-- TurboQuant -->
  <g transform="translate(80,486)">
    <rect width="260" height="48" rx="7" fill="#0d0a2e" stroke="#c084fc" stroke-width="0.8" opacity="0.9"/>
    <rect width="4" height="48" rx="2" fill="url(#purpleBar)"/>
    <text x="18" y="18" font-family="Segoe UI,sans-serif" font-size="10.5" font-weight="700" fill="#c084fc">TURBOQUANT MEMORY</text>
    <text x="18" y="32" font-family="Segoe UI,sans-serif" font-size="8.5" fill="#94a3b8">3 bits/dim · 6x compression</text>
    <text x="18" y="43" font-family="Courier New,monospace" font-size="7" fill="#64748b">ICLR 2026 · PolarQuant + QJL</text>
  </g>

  <!-- SSSP Router -->
  <g transform="translate(365,486)">
    <rect width="260" height="48" rx="7" fill="#0d0a2e" stroke="#22d3ee" stroke-width="0.8" opacity="0.9"/>
    <rect width="4" height="48" rx="2" fill="url(#cyanBar)"/>
    <text x="18" y="18" font-family="Segoe UI,sans-serif" font-size="10.5" font-weight="700" fill="#22d3ee">SSSP QUANTUM ROUTER</text>
    <text x="18" y="32" font-family="Segoe UI,sans-serif" font-size="8.5" fill="#94a3b8">O(m log²/³ n) deterministic</text>
    <text x="18" y="43" font-family="Courier New,monospace" font-size="7" fill="#64748b">arXiv 2504.17033 · BMSSP</text>
  </g>

  <!-- Self-Evolution + CAIP -->
  <g transform="translate(650,486)">
    <rect width="260" height="48" rx="7" fill="#0d0a2e" stroke="#f59e0b" stroke-width="0.8" opacity="0.9"/>
    <rect width="4" height="48" rx="2" fill="url(#amberBar)"/>
    <text x="18" y="18" font-family="Segoe UI,sans-serif" font-size="10.5" font-weight="700" fill="#f59e0b">SELF-EVOLUTION + CAIP</text>
    <text x="18" y="32" font-family="Segoe UI,sans-serif" font-size="8.5" fill="#94a3b8">Genetic rules · Cross-agent sync</text>
    <text x="18" y="43" font-family="Courier New,monospace" font-size="7" fill="#64748b">Tournament k=5 · 7 agents broadcast</text>
  </g>

  <!-- Swarm + Defense + Predictive -->
  <g transform="translate(935,486)">
    <rect width="260" height="48" rx="7" fill="#0d0a2e" stroke="#ef4444" stroke-width="0.8" opacity="0.9"/>
    <rect width="4" height="48" rx="2" fill="url(#redBar)"/>
    <text x="18" y="18" font-family="Segoe UI,sans-serif" font-size="10.5" font-weight="700" fill="#ef4444">DEFENSE + SWARM + PREDICT</text>
    <text x="18" y="32" font-family="Segoe UI,sans-serif" font-size="8.5" fill="#94a3b8">Hallucination · ACO · Bug forecast</text>
    <text x="18" y="43" font-family="Courier New,monospace" font-size="7" fill="#64748b">PageRank · Anomaly · Pheromone</text>
  </g>

  <!-- ===== STATS BAR ===== -->
  <rect x="80" y="555" width="1120" height="1" fill="url(#line1)" opacity="0.25"/>

  <!-- Stats row -->
  <g transform="translate(80,568)">
    <!-- Stat: 9 AI Agents -->
    <rect width="120" height="36" rx="6" fill="#0d0a2e" stroke="#a855f7" stroke-width="0.6" opacity="0.8"/>
    <text x="60" y="16" text-anchor="middle" font-family="Segoe UI,sans-serif" font-size="14" font-weight="800" fill="#a855f7">9</text>
    <text x="60" y="30" text-anchor="middle" font-family="Segoe UI,sans-serif" font-size="7.5" fill="#94a3b8">AI AGENTS</text>
  </g>
  <g transform="translate(215,568)">
    <!-- Stat: 19 MCP Tools -->
    <rect width="120" height="36" rx="6" fill="#0d0a2e" stroke="#06b6d4" stroke-width="0.6" opacity="0.8"/>
    <text x="60" y="16" text-anchor="middle" font-family="Segoe UI,sans-serif" font-size="14" font-weight="800" fill="#06b6d4">19</text>
    <text x="60" y="30" text-anchor="middle" font-family="Segoe UI,sans-serif" font-size="7.5" fill="#94a3b8">MCP TOOLS</text>
  </g>
  <g transform="translate(350,568)">
    <!-- Stat: 16 Modules -->
    <rect width="120" height="36" rx="6" fill="#0d0a2e" stroke="#22d3ee" stroke-width="0.6" opacity="0.8"/>
    <text x="60" y="16" text-anchor="middle" font-family="Segoe UI,sans-serif" font-size="14" font-weight="800" fill="#22d3ee">16</text>
    <text x="60" y="30" text-anchor="middle" font-family="Segoe UI,sans-serif" font-size="7.5" fill="#94a3b8">BRAIN MODULES</text>
  </g>
  <g transform="translate(485,568)">
    <!-- Stat: 50+ Commands -->
    <rect width="120" height="36" rx="6" fill="#0d0a2e" stroke="#f59e0b" stroke-width="0.6" opacity="0.8"/>
    <text x="60" y="16" text-anchor="middle" font-family="Segoe UI,sans-serif" font-size="14" font-weight="800" fill="#f59e0b">50+</text>
    <text x="60" y="30" text-anchor="middle" font-family="Segoe UI,sans-serif" font-size="7.5" fill="#94a3b8">CLI COMMANDS</text>
  </g>
  <g transform="translate(620,568)">
    <!-- Stat: 6x Compression -->
    <rect width="120" height="36" rx="6" fill="#0d0a2e" stroke="#10b981" stroke-width="0.6" opacity="0.8"/>
    <text x="60" y="16" text-anchor="middle" font-family="Segoe UI,sans-serif" font-size="14" font-weight="800" fill="#10b981">6x</text>
    <text x="60" y="30" text-anchor="middle" font-family="Segoe UI,sans-serif" font-size="7.5" fill="#94a3b8">COMPRESSION</text>
  </g>
  <g transform="translate(755,568)">
    <!-- Stat: Zero Config -->
    <rect width="120" height="36" rx="6" fill="#0d0a2e" stroke="#2dd4bf" stroke-width="0.6" opacity="0.8"/>
    <text x="60" y="16" text-anchor="middle" font-family="Segoe UI,sans-serif" font-size="14" font-weight="800" fill="#2dd4bf">0</text>
    <text x="60" y="30" text-anchor="middle" font-family="Segoe UI,sans-serif" font-size="7.5" fill="#94a3b8">CONFIG NEEDED</text>
  </g>
  <g transform="translate(890,568)">
    <!-- Stat: ICLR 2026 -->
    <rect width="120" height="36" rx="6" fill="#0d0a2e" stroke="#c084fc" stroke-width="0.6" opacity="0.8"/>
    <text x="60" y="16" text-anchor="middle" font-family="Segoe UI,sans-serif" font-size="14" font-weight="800" fill="#c084fc">ICLR</text>
    <text x="60" y="30" text-anchor="middle" font-family="Segoe UI,sans-serif" font-size="7.5" fill="#94a3b8">2026 TURBOQUANT</text>
  </g>
  <g transform="translate(1025,568)">
    <!-- Stat: arXiv -->
    <rect width="170" height="36" rx="6" fill="#0d0a2e" stroke="#ef4444" stroke-width="0.6" opacity="0.8"/>
    <text x="85" y="16" text-anchor="middle" font-family="Segoe UI,sans-serif" font-size="14" font-weight="800" fill="#ef4444">arXiv</text>
    <text x="85" y="30" text-anchor="middle" font-family="Segoe UI,sans-serif" font-size="7.5" fill="#94a3b8">2504.17033 SSSP</text>
  </g>

  <!-- Bottom tagline -->
  <text x="640" y="638" text-anchor="middle" font-family="Segoe UI,sans-serif" font-size="11" fill="#475569" letter-spacing="1">ZERO-CONFIG · SELF-EVOLVING · INFINITE-MEMORY · MULTI-AGENT · HALLUCINATION-DEFENSE</text>

  <!-- npm install hint -->
  <rect x="390" y="652" width="500" height="28" rx="14" fill="#0d0a2e" stroke="#a855f7" stroke-width="0.8" opacity="0.8"/>
  <text x="640" y="671" text-anchor="middle" font-family="Courier New,monospace" font-size="11" fill="#a855f7">$ npm install @theihtisham/agent-shadow-brain</text>

  <!-- Corner decorations -->
  <path d="M0,0 L60,0 L60,2.5 L2.5,2.5 L2.5,60 L0,60Z" fill="#a855f7" opacity="0.3"/>
  <path d="M1280,0 L1220,0 L1220,2.5 L1277.5,2.5 L1277.5,60 L1280,60Z" fill="#06b6d4" opacity="0.3"/>
  <path d="M0,720 L60,720 L60,717.5 L2.5,717.5 L2.5,660 L0,660Z" fill="#06b6d4" opacity="0.3"/>
  <path d="M1280,720 L1220,720 L1220,717.5 L1277.5,717.5 L1277.5,660 L1280,660Z" fill="#a855f7" opacity="0.3"/>

  <!-- Side accent bars -->
  <rect x="0" y="180" width="2" height="120" fill="#a855f7" opacity="0.12"/>
  <rect x="1278" y="180" width="2" height="120" fill="#06b6d4" opacity="0.12"/>

  <!-- Bottom accent line -->
  <rect x="140" y="700" width="1000" height="1" fill="url(#line1)" opacity="0.3"/>
</svg>
